<svg width="13" height="16" viewBox="0 0 13 16" fill="none" xmlns="http://www.w3.org/2000/svg">
<path d="M11 0H4C2.89543 0 2 0.89543 2 2C0.895431 2 0 2.89543 0 4V14C0 15.1046 0.895431 16 2 16H9C10.1046 16 11 15.1046 11 14C12.1046 14 13 13.1046 13 12V2C13 0.89543 12.1046 0 11 0ZM11 13V4C11 2.89543 10.1046 2 9 2H3C3 1.44772 3.44772 1 4 1H11C11.5523 1 12 1.44772 12 2V12C12 12.5523 11.5523 13 11 13ZM1 4C1 3.44772 1.44772 3 2 3H9C9.55228 3 10 3.44772 10 4V14C10 14.5523 9.55229 15 9 15H2C1.44772 15 1 14.5523 1 14V4Z" fill="#7C8DB5"/>
</svg>
